<?xml version="1.0" ?><svg xmlns="http://www.w3.org/2000/svg" xmlns:xlink="http://www.w3.org/1999/xlink" version="1.1" viewBox="0 0 94 94" style="enable-background:new 0 0 94 94;" xml:space="preserve"><style type="text/css">
	.st0{display:none;}
	.st1{display:inline;fill:#FEA900;}
	.st2{display:inline;}
	.st3{display:inline;fill:#F9CD6C;}
	.st4{display:inline;fill:none;stroke:#000000;stroke-width:0.25;stroke-miterlimit:10;}
	.st5{stroke:#000000;stroke-linecap:round;stroke-linejoin:round;stroke-miterlimit:10;}
	.st6{opacity:0.2;stroke:#000000;stroke-linecap:round;stroke-linejoin:round;stroke-miterlimit:10;}
	.st7{fill:#F12A00;stroke:#000000;stroke-linecap:round;stroke-linejoin:round;stroke-miterlimit:10;}
	.st8{fill:#FBECCF;stroke:#000000;stroke-linecap:round;stroke-linejoin:round;stroke-miterlimit:10;}
	.st9{opacity:0.2;fill:#F12A00;}
	.st10{fill:#F7C86C;stroke:#000000;stroke-linecap:round;stroke-linejoin:round;stroke-miterlimit:10;}
	.st11{fill:none;stroke:#000000;stroke-linecap:round;stroke-linejoin:round;stroke-miterlimit:10;}
	.st12{display:inline;stroke:#000000;stroke-linecap:round;stroke-linejoin:round;stroke-miterlimit:10;}
	.st13{fill:#FAAC01;stroke:#000000;stroke-linecap:round;stroke-linejoin:round;stroke-miterlimit:10;}
	.st14{fill:#FAAC01;}
	.st15{display:inline;fill:#FAEBCE;stroke:#000000;stroke-width:0.25;stroke-miterlimit:10;}
	.st16{display:inline;fill:none;stroke:#000000;stroke-width:1.0164;stroke-miterlimit:10;}
	.st17{display:inline;fill:#FAEBCE;stroke:#000000;stroke-width:1.0164;stroke-miterlimit:10;}
	.st18{fill:#FEA900;}
	.st19{fill:#F9CD6C;}
	.st20{fill:none;stroke:#000000;stroke-width:1.0164;stroke-miterlimit:10;}
	.st21{fill:#FAEBCE;stroke:#000000;stroke-width:1.0164;stroke-miterlimit:10;}
	.st22{display:inline;fill:#FAEBCE;}
	.st23{fill:#008FF5;stroke:#000000;stroke-linecap:round;stroke-linejoin:round;stroke-miterlimit:10;}
	.st24{fill:#D0E6FB;stroke:#000000;stroke-linecap:round;stroke-linejoin:round;stroke-miterlimit:10;}
	.st25{fill:#FFFFFF;stroke:#000000;stroke-linecap:round;stroke-linejoin:round;stroke-miterlimit:10;}
	.st26{fill:#75D95D;stroke:#000000;stroke-linecap:round;stroke-linejoin:round;stroke-miterlimit:10;}
	.st27{fill:#CAF3BB;}
	.st28{fill:#FFFFFF;}
	.st29{fill:#CAF3BB;stroke:#000000;stroke-linecap:round;stroke-linejoin:round;stroke-miterlimit:10;}
	.st30{display:inline;fill:#D0E6FB;stroke:#000000;stroke-linecap:round;stroke-linejoin:round;stroke-miterlimit:10;}
	.st31{stroke:#FFFFFF;stroke-linecap:round;stroke-linejoin:round;stroke-miterlimit:10;}
	.st32{fill:#B4B2FB;stroke:#000000;stroke-linecap:round;stroke-linejoin:round;stroke-miterlimit:10;}
	.st33{fill:#018BEE;}
	.st34{display:inline;fill:none;stroke:#000000;stroke-linecap:round;stroke-linejoin:round;stroke-miterlimit:10;}
	.st35{fill:#75D95D;}
	.st36{fill:#4949F7;stroke:#000000;stroke-linecap:round;stroke-linejoin:round;stroke-miterlimit:10;}
	.st37{fill:#D0E6FB;}
	.st38{fill:#6FBBF7;stroke:#000000;stroke-linecap:round;stroke-linejoin:round;stroke-miterlimit:10;}
	.st39{fill:#018BEE;stroke:#000000;stroke-linecap:round;stroke-linejoin:round;stroke-miterlimit:10;}
	.st40{fill:#B4B2FB;}
	.st41{fill:#E8E9FE;}
	.st42{fill:#B4B2FB;stroke:#000F24;stroke-miterlimit:10;}
	.st43{stroke:#000000;stroke-miterlimit:10;}
	.st44{fill:#E8E9FE;stroke:#000000;stroke-linecap:round;stroke-linejoin:round;stroke-miterlimit:10;}
	.st45{opacity:0.3;fill:#018BEE;}
	.st46{fill:#6FBBF7;}
	.st47{fill:#FAAC01;stroke:#FFFFFF;stroke-linecap:round;stroke-linejoin:round;stroke-miterlimit:10;}
	.st48{fill:#006A2F;}
	.st49{opacity:0.1;}
	.st50{fill:#FCD4CA;stroke:#000000;stroke-linecap:round;stroke-linejoin:round;stroke-miterlimit:10;}
	.st51{fill:#006A2F;stroke:#000000;stroke-linecap:round;stroke-linejoin:round;stroke-miterlimit:10;}
	.st52{fill:#4949F7;}
	.st53{fill:#F12A00;}
	.st54{fill:#D0E6FB;stroke:#018BEE;stroke-linecap:round;stroke-linejoin:round;stroke-miterlimit:10;}
	.st55{fill:#9CD7FF;}
	.st56{fill:#F7C86C;}
	.st57{opacity:0.3;stroke:#000000;stroke-linecap:round;stroke-linejoin:round;stroke-miterlimit:10;}
	.st58{opacity:0.1;stroke:#000000;stroke-linecap:round;stroke-linejoin:round;stroke-miterlimit:10;}
	.st59{opacity:0.3;fill:#006A2F;}
	.st60{stroke:#000000;stroke-width:1.0825;stroke-linecap:round;stroke-linejoin:round;stroke-miterlimit:10;}
	.st61{fill:#D0E6FB;stroke:#000000;stroke-width:1.0825;stroke-linecap:round;stroke-linejoin:round;stroke-miterlimit:10;}
	.st62{fill:#6FBBF7;stroke:#000000;stroke-width:1.0825;stroke-linecap:round;stroke-linejoin:round;stroke-miterlimit:10;}
	.st63{fill:none;stroke:#000000;stroke-width:1.0825;stroke-linecap:round;stroke-linejoin:round;stroke-miterlimit:10;}
	.st64{fill:#CAF3BB;stroke:#000000;stroke-width:0.7876;stroke-linecap:round;stroke-linejoin:round;stroke-miterlimit:10;}
	.st65{fill:#6FBBF7;stroke:#FFFFFF;stroke-linecap:round;stroke-linejoin:round;stroke-miterlimit:10;}
	.st66{opacity:0.2;}
	.st67{stroke:#E8E9FE;stroke-linecap:round;stroke-linejoin:round;stroke-miterlimit:10;}
	.st68{fill:#FCD4CA;}
	.st69{fill:#FBECCF;}
	.st70{opacity:0.1;fill:#F12A00;}
	.st71{opacity:0.5;stroke:#000000;stroke-linecap:round;stroke-linejoin:round;stroke-miterlimit:10;}
	.st72{fill:#6FBBF7;stroke:#E8E9FE;stroke-linecap:round;stroke-linejoin:round;stroke-miterlimit:10;}
	.st73{opacity:0.5;fill:#D0E6FB;}
	.st74{fill:#70BAF7;}
	.st75{fill:none;stroke:#FFFFFF;stroke-linecap:round;stroke-linejoin:round;stroke-miterlimit:10;}
	.st76{fill:#70BAF7;stroke:#70BAF7;stroke-linecap:round;stroke-linejoin:round;stroke-miterlimit:10;}
	.st77{fill:#018BEE;stroke:#018BEE;stroke-linecap:round;stroke-linejoin:round;stroke-miterlimit:10;}
	.st78{fill:#70BAF7;stroke:#000000;stroke-linecap:round;stroke-linejoin:round;stroke-miterlimit:10;}
	.st79{fill:#F9CD6C;stroke:#000000;stroke-linecap:round;stroke-linejoin:round;stroke-miterlimit:10;}
	.st80{fill:none;}
	.st81{fill:#006A2F;stroke:#006A2F;stroke-miterlimit:10;}
	.st82{fill:#B4DFFC;}
	.st83{fill:#6FBBF7;stroke:#018BEE;stroke-linecap:round;stroke-linejoin:round;stroke-miterlimit:10;}
	.st84{fill:none;stroke:#FBECCF;stroke-linecap:round;stroke-linejoin:round;stroke-miterlimit:10;}
	.st85{fill:none;stroke:#018BEE;stroke-linecap:round;stroke-linejoin:round;stroke-miterlimit:10;}
	.st86{fill:#010101;stroke:#FFFFFF;stroke-linecap:round;stroke-linejoin:round;stroke-miterlimit:10;}
	.st87{fill:#010101;stroke:#000000;stroke-linecap:round;stroke-linejoin:round;stroke-miterlimit:10;}
	.st88{fill:#75D95D;stroke:#FFFFFF;stroke-linecap:round;stroke-linejoin:round;stroke-miterlimit:10;}
	.st89{fill:#94F279;stroke:#000000;stroke-linecap:round;stroke-linejoin:round;stroke-miterlimit:10;}
	.st90{fill:#8C8CF9;}
	.st91{fill:#008FF5;}
	.st92{fill:#8CD8F9;}
	.st93{fill:#FFC043;}
	.st94{fill:#94F279;}
	.st95{fill:#FF3D1D;}
	.st96{fill:#31B1FF;}
	.st97{fill:#FFCF7B;}
	.st98{fill:#B2FF99;}
	.st99{fill:#D7D7FF;}
	.st100{fill:#FF7C6E;}
	.st101{fill:#5CC9FF;}
	.st102{fill:#F12A00;stroke:#FFFFFF;stroke-linecap:round;stroke-linejoin:round;stroke-miterlimit:10;}
	.st103{fill:#F7C86C;stroke:#000000;stroke-width:1.0164;stroke-miterlimit:10;}
</style><g id="Refrences" class="st0"/><g id="Tittle"/><g id="Icons"><g><g><g><path class="st5" d="M65.69,56.23c-3.46-2.07-7.29-4.08-9.07-7.69c-0.94-1.92-1.2-4.07-1.8-6.12c-0.83-2.91-2.36-5.61-4.4-7.83      c-1.11-1.19-2.51-2.3-4.13-2.36c-0.95-0.04-1.81,0.29-2.6,0.79v35.5c2.03,0.38,4.13,0.59,6.27,0.59      c8.26,0,15.82-2.99,21.67-7.94C70.14,59.16,67.89,57.56,65.69,56.23z"/><path class="st5" d="M65.69,56.23c-3.46-2.07-7.29-4.08-9.07-7.69c-0.94-1.92-1.2-4.07-1.8-6.12c-0.83-2.91-2.36-5.61-4.4-7.83      c-1.11-1.19-2.51-2.3-4.13-2.36c-0.95-0.04-1.81,0.29-2.6,0.79v35.5c2.03,0.38,4.13,0.59,6.27,0.59      c8.26,0,15.82-2.99,21.67-7.94C70.14,59.16,67.89,57.56,65.69,56.23z"/><path class="st57" d="M43.69,45.95c5.12,1.25,10.85,3.7,17.14,7.23c-1.74-1.26-3.27-2.73-4.21-4.64      c-0.94-1.92-1.2-4.07-1.8-6.12c-0.83-2.91-2.36-5.61-4.4-7.83c-1.11-1.19-2.51-2.3-4.13-2.36c-0.95-0.04-1.81,0.29-2.6,0.79      V45.95z"/><path class="st5" d="M83.52,35.56c0,6.79-2.02,13.1-5.48,18.38c-0.06-0.06-0.11-0.11-0.16-0.17c-0.93-1.06-1.49-2.46-2.62-3.32      c-0.96-0.76-2.22-1.02-3.35-1.51c-4.34-1.87-6.58-7.56-4.65-11.89c1.02-2.32,2.97-4.08,4.36-6.2c1.38-2.13,2.14-5.07,0.63-7.1      c-0.88-1.21-2.36-1.83-3.45-2.85c-2.04-1.9-2.49-5.05-1.86-7.75c0.43-1.82,1.26-3.48,2.24-5.09      C77.85,14.12,83.52,24.17,83.52,35.56z"/><path class="st5" d="M77.88,53.77c-0.93-1.06-1.49-2.46-2.62-3.32c-0.96-0.76-2.22-1.02-3.35-1.51      c-4.34-1.87-6.58-7.56-4.65-11.89c1.02-2.32,2.97-4.08,4.36-6.2c1.38-2.13,2.14-5.07,0.63-7.1c-0.88-1.21-2.36-1.83-3.45-2.85      c-2.04-1.9-2.49-5.05-1.86-7.75c0.43-1.82,1.26-3.48,2.24-5.09c-1.08-0.76-2.22-1.46-3.4-2.1c-0.42,0.85-0.93,1.66-1.53,2.39      c-1.2,1.48-3.13,2.77-4.93,2.12c-1.55-0.57-2.3-2.68-1.44-4.1c-2,0.48-4.35,0.78-5.85-0.61c-0.98-0.92-1.29-2.39-1.09-3.73      C50.61,2,50.29,2,49.96,2c-2.14,0-4.24,0.2-6.27,0.59v0.35c0.99,1.56,1,3.74,0,5.28v24.81c0.79-0.5,1.65-0.83,2.6-0.79      c1.63,0.06,3.02,1.16,4.13,2.36c2.05,2.22,3.57,4.92,4.4,7.83c0.59,2.05,0.85,4.2,1.8,6.12c1.78,3.61,5.61,5.63,9.07,7.69      c2.2,1.32,4.44,2.93,5.94,4.95c2.47-2.09,4.63-4.53,6.41-7.24C77.98,53.88,77.93,53.83,77.88,53.77z"/><path class="st5" d="M77.88,53.77c-0.93-1.06-1.49-2.46-2.62-3.32c-0.96-0.76-2.22-1.02-3.35-1.51      c-4.34-1.87-6.58-7.56-4.65-11.89c1.02-2.32,2.97-4.08,4.36-6.2c1.38-2.13,2.14-5.07,0.63-7.1c-0.88-1.21-2.36-1.83-3.45-2.85      c-2.04-1.9-2.49-5.05-1.86-7.75c0.43-1.82,1.26-3.48,2.24-5.09c-1.08-0.76-2.22-1.46-3.4-2.1c-0.42,0.85-0.93,1.66-1.53,2.39      c-0.78,0.96-1.87,1.83-3.02,2.15c4.67,12.02,4.05,26.65,0,42.97c1.43,1,2.98,1.89,4.46,2.77c2.2,1.32,4.44,2.93,5.94,4.95      c2.47-2.09,4.63-4.53,6.41-7.24C77.98,53.88,77.93,53.83,77.88,53.77z"/><path class="st5" d="M43.69,2.94v5.28C44.7,6.68,44.68,4.5,43.69,2.94z"/><path class="st5" d="M65.78,5.95c-0.42,0.85-0.93,1.66-1.53,2.39c-1.2,1.48-3.13,2.77-4.93,2.12c-1.55-0.57-2.3-2.68-1.44-4.1      c-2,0.48-4.35,0.78-5.85-0.61c-0.98-0.92-1.29-2.39-1.09-3.73C56.29,2.17,61.34,3.58,65.78,5.95z"/><path class="st5" d="M65.69,56.23c-3.46-2.07-7.29-4.08-9.07-7.69c-0.94-1.92-1.2-4.07-1.8-6.12c-0.83-2.91-2.36-5.61-4.4-7.83      c-1.11-1.19-2.51-2.3-4.13-2.36c-0.95-0.04-1.81,0.29-2.6,0.79v35.5c2.03,0.38,4.13,0.59,6.27,0.59      c8.26,0,15.82-2.99,21.67-7.94C70.14,59.16,67.89,57.56,65.69,56.23z"/><path class="st5" d="M65.69,56.23c-3.46-2.07-7.29-4.08-9.07-7.69c-0.94-1.92-1.2-4.07-1.8-6.12c-0.83-2.91-2.36-5.61-4.4-7.83      c-1.11-1.19-2.51-2.3-4.13-2.36c-0.95-0.04-1.81,0.29-2.6,0.79v35.5c2.03,0.38,4.13,0.59,6.27,0.59      c8.26,0,15.82-2.99,21.67-7.94C70.14,59.16,67.89,57.56,65.69,56.23z"/><path class="st5" d="M83.52,35.56c0,6.79-2.02,13.1-5.48,18.38c-0.06-0.06-0.11-0.11-0.16-0.17c-0.93-1.06-1.49-2.46-2.62-3.32      c-0.96-0.76-2.22-1.02-3.35-1.51c-4.34-1.87-6.58-7.56-4.65-11.89c1.02-2.32,2.97-4.08,4.36-6.2c1.38-2.13,2.14-5.07,0.63-7.1      c-0.88-1.21-2.36-1.83-3.45-2.85c-2.04-1.9-2.49-5.05-1.86-7.75c0.43-1.82,1.26-3.48,2.24-5.09      C77.85,14.12,83.52,24.17,83.52,35.56z"/></g><g><path class="st26" d="M69.12,61.18c-5.85,4.95-13.41,7.94-21.67,7.94c-17.39,0-31.67-13.21-33.39-30.13      c0.83-0.56,1.66-1.13,2.48-1.71c2.48-1.7,5.6-3.47,8.3-2.15c2.15,1.06,3.16,3.78,5.39,4.66c1.49,0.58,3.22,0.19,4.58-0.65      c1.35-0.84,2.41-2.09,3.43-3.31c1.46-1.76,3.26-3.69,5.54-3.6c1.63,0.06,3.02,1.16,4.13,2.36c2.05,2.22,3.57,4.92,4.4,7.83      c0.59,2.05,0.85,4.2,1.8,6.12c1.78,3.61,5.61,5.63,9.07,7.69C65.38,57.56,67.63,59.16,69.12,61.18z"/><path class="st26" d="M69.12,61.18c-5.85,4.95-13.41,7.94-21.67,7.94c-17.39,0-31.67-13.21-33.39-30.13      c0.83-0.56,1.66-1.13,2.48-1.71c2.48-1.7,5.6-3.47,8.3-2.15c2.15,1.06,3.16,3.78,5.39,4.66c1.49,0.58,3.22,0.19,4.58-0.65      c1.35-0.84,2.41-2.09,3.43-3.31c1.46-1.76,3.26-3.69,5.54-3.6c1.63,0.06,3.02,1.16,4.13,2.36c2.05,2.22,3.57,4.92,4.4,7.83      c0.59,2.05,0.85,4.2,1.8,6.12c1.78,3.61,5.61,5.63,9.07,7.69C65.38,57.56,67.63,59.16,69.12,61.18z"/><path class="st59" d="M58.32,53.18c-1.74-1.26-3.27-2.73-4.21-4.64c-0.94-1.92-1.2-4.07-1.8-6.12c-0.83-2.91-2.36-5.61-4.4-7.83      c-1.11-1.19-2.51-2.3-4.13-2.36c-2.28-0.09-4.07,1.85-5.54,3.6c-1.02,1.22-2.08,2.47-3.43,3.31c-1.36,0.84-3.09,1.23-4.58,0.65      c-2.23-0.88-3.24-3.6-5.39-4.66c-2.7-1.32-5.82,0.45-8.3,2.15c-0.82,0.57-1.65,1.14-2.48,1.71c0.52,5.17,2.23,9.99,4.83,14.2      C26.15,41.76,39.83,42.8,58.32,53.18z"/><path class="st26" d="M81.01,35.56c0,6.79-2.02,13.1-5.48,18.38c-0.06-0.06-0.11-0.11-0.16-0.17c-0.93-1.06-1.49-2.46-2.62-3.32      c-0.96-0.76-2.22-1.02-3.35-1.51c-4.34-1.87-6.58-7.56-4.65-11.89c1.02-2.32,2.97-4.08,4.36-6.2c1.38-2.13,2.14-5.07,0.63-7.1      c-0.88-1.21-2.36-1.83-3.45-2.85c-2.04-1.9-2.49-5.05-1.86-7.75c0.43-1.82,1.26-3.48,2.24-5.09      C75.34,14.12,81.01,24.17,81.01,35.56z"/><path class="st38" d="M75.53,53.94c-1.78,2.71-3.94,5.16-6.41,7.24c-1.49-2.02-3.74-3.62-5.94-4.95      c-3.46-2.07-7.29-4.08-9.07-7.69c-0.94-1.92-1.2-4.07-1.8-6.12c-0.83-2.91-2.36-5.61-4.4-7.83c-1.11-1.19-2.51-2.3-4.13-2.36      c-2.28-0.09-4.07,1.85-5.54,3.6c-1.02,1.22-2.08,2.47-3.43,3.31c-1.36,0.84-3.09,1.23-4.58,0.65c-2.23-0.88-3.24-3.6-5.39-4.66      c-2.7-1.32-5.82,0.45-8.3,2.15c-0.82,0.57-1.65,1.14-2.48,1.71c-0.11-1.12-0.17-2.27-0.17-3.43c0-3.99,0.69-7.82,1.98-11.36      c2.75,1.39,5.75,2.31,8.82,2.65c2.67,0.3,5.86-0.07,7.21-2.39c2.08-3.54-1.72-8.78,0.92-11.92c1.77-2.1,5.2-1.66,7.4-3.27      c2.03-1.48,2.24-4.71,0.76-6.65C43.08,2.21,45.24,2,47.45,2c0.33,0,0.65,0,0.97,0.01c-0.2,1.34,0.11,2.81,1.09,3.73      c1.49,1.39,3.85,1.09,5.85,0.61c-0.85,1.42-0.11,3.53,1.44,4.1c1.8,0.65,3.72-0.63,4.93-2.12c0.6-0.73,1.11-1.53,1.53-2.39      c1.18,0.63,2.32,1.33,3.4,2.1c-0.97,1.61-1.81,3.27-2.24,5.09c-0.63,2.71-0.18,5.86,1.86,7.75c1.09,1.02,2.57,1.64,3.45,2.85      c1.5,2.04,0.75,4.98-0.63,7.1c-1.39,2.12-3.34,3.88-4.36,6.2c-1.93,4.32,0.31,10.02,4.65,11.89c1.13,0.49,2.39,0.75,3.35,1.51      c1.12,0.86,1.69,2.26,2.62,3.32C75.42,53.83,75.47,53.88,75.53,53.94z"/><path class="st33" d="M75.37,53.77c-0.93-1.06-1.49-2.46-2.62-3.32c-0.96-0.76-2.22-1.02-3.35-1.51      c-4.34-1.87-6.58-7.56-4.65-11.89c1.02-2.32,2.97-4.08,4.36-6.2c1.38-2.13,2.14-5.07,0.63-7.1c-0.88-1.21-2.36-1.83-3.45-2.85      c-2.04-1.9-2.49-5.05-1.86-7.75c0.43-1.82,1.26-3.48,2.24-5.09c-1.08-0.76-2.22-1.46-3.4-2.1c-0.42,0.85-0.93,1.66-1.53,2.39      c-0.78,0.96-1.87,1.83-3.02,2.15c4.67,12.02,4.05,26.65,0,42.97c1.43,1,2.98,1.89,4.46,2.77c2.2,1.32,4.44,2.93,5.94,4.95      c2.47-2.09,4.63-4.53,6.41-7.24C75.47,53.88,75.42,53.83,75.37,53.77z"/><path class="st26" d="M40.23,9.27c-2.21,1.62-5.64,1.17-7.4,3.27c-2.64,3.14,1.15,8.38-0.92,11.92      c-1.35,2.32-4.54,2.69-7.21,2.39c-3.07-0.34-6.07-1.25-8.82-2.65C19.81,13.22,29.31,4.9,40.99,2.62      C42.47,4.57,42.25,7.79,40.23,9.27z"/><path class="st26" d="M63.27,5.95c-0.42,0.85-0.93,1.66-1.53,2.39c-1.2,1.48-3.13,2.77-4.93,2.12c-1.55-0.57-2.3-2.68-1.44-4.1      c-2,0.48-4.35,0.78-5.85-0.61c-0.98-0.92-1.29-2.39-1.09-3.73C53.78,2.17,58.83,3.58,63.27,5.95z"/><path class="st11" d="M69.12,61.18c-5.85,4.95-13.41,7.94-21.67,7.94c-17.39,0-31.67-13.21-33.39-30.13      c0.83-0.56,1.66-1.13,2.48-1.71c2.48-1.7,5.6-3.47,8.3-2.15c2.15,1.06,3.16,3.78,5.39,4.66c1.49,0.58,3.22,0.19,4.58-0.65      c1.35-0.84,2.41-2.09,3.43-3.31c1.46-1.76,3.26-3.69,5.54-3.6c1.63,0.06,3.02,1.16,4.13,2.36c2.05,2.22,3.57,4.92,4.4,7.83      c0.59,2.05,0.85,4.2,1.8,6.12c1.78,3.61,5.61,5.63,9.07,7.69C65.38,57.56,67.63,59.16,69.12,61.18z"/><path class="st11" d="M69.12,61.18c-5.85,4.95-13.41,7.94-21.67,7.94c-17.39,0-31.67-13.21-33.39-30.13      c0.83-0.56,1.66-1.13,2.48-1.71c2.48-1.7,5.6-3.47,8.3-2.15c2.15,1.06,3.16,3.78,5.39,4.66c1.49,0.58,3.22,0.19,4.58-0.65      c1.35-0.84,2.41-2.09,3.43-3.31c1.46-1.76,3.26-3.69,5.54-3.6c1.63,0.06,3.02,1.16,4.13,2.36c2.05,2.22,3.57,4.92,4.4,7.83      c0.59,2.05,0.85,4.2,1.8,6.12c1.78,3.61,5.61,5.63,9.07,7.69C65.38,57.56,67.63,59.16,69.12,61.18z"/><path class="st11" d="M81.01,35.56c0,6.79-2.02,13.1-5.48,18.38c-0.06-0.06-0.11-0.11-0.16-0.17c-0.93-1.06-1.49-2.46-2.62-3.32      c-0.96-0.76-2.22-1.02-3.35-1.51c-4.34-1.87-6.58-7.56-4.65-11.89c1.02-2.32,2.97-4.08,4.36-6.2c1.38-2.13,2.14-5.07,0.63-7.1      c-0.88-1.21-2.36-1.83-3.45-2.85c-2.04-1.9-2.49-5.05-1.86-7.75c0.43-1.82,1.26-3.48,2.24-5.09      C75.34,14.12,81.01,24.17,81.01,35.56z"/></g></g><g><g><g><g><path class="st5" d="M54.49,88.8L54.49,88.8c-2.47,2.47-6.52,2.32-8.79-0.34L33.31,74.03l6.41-6.41l14.44,12.39        C56.81,82.28,56.96,86.33,54.49,88.8z"/></g><g><polygon class="st5" points="43.99,71.28 36.97,78.29 33.31,74.03 39.72,67.62       "/></g><circle class="st5" cx="27.51" cy="61.82" r="15.59"/><g><path class="st10" d="M53.05,90.24L53.05,90.24c-2.47,2.47-6.52,2.32-8.79-0.34L31.87,75.47l6.41-6.41l14.44,12.39        C55.37,83.72,55.52,87.77,53.05,90.24z"/></g><g><polygon class="st8" points="42.54,72.72 35.53,79.74 31.87,75.47 38.28,69.06       "/></g><circle class="st5" cx="27.51" cy="61.82" r="11.69"/><circle class="st25" cx="26.07" cy="63.26" r="15.59"/><path class="st5" d="M27.2,74.89c-0.38,0.03-0.76,0.05-1.14,0.05c-6.45,0-11.69-5.23-11.69-11.69       c0-6.45,5.24-11.69,11.69-11.69c0.38,0,0.76,0.02,1.14,0.05c-5.93,0.56-10.56,5.57-10.56,11.64       C16.64,69.33,21.27,74.33,27.2,74.89z"/><path class="st32" d="M37.75,63.25c0,6.08-4.62,11.06-10.55,11.64c-5.93-0.56-10.56-5.56-10.56-11.64       c0-6.07,4.63-11.07,10.56-11.64C33.13,52.19,37.75,57.18,37.75,63.25z"/></g></g><g><g><g><g><g><g><g><g><g><circle class="st5" cx="25.37" cy="64.1" r="3.8"/></g></g></g></g><g><g><g><g><g><g><g><g><g><path class="st5" d="M34.83,62.9c0-0.48-0.35-0.9-0.82-0.99l-0.13-0.03c-0.34-0.06-0.63-0.3-0.75-0.63                   c-0.08-0.24-0.19-0.47-0.3-0.7c-0.16-0.32-0.13-0.71,0.07-1l0.09-0.13c0.27-0.4,0.22-0.94-0.12-1.28l-0.51-0.51                   c-0.34-0.34-0.88-0.39-1.28-0.12l-0.13,0.09c-0.3,0.2-0.68,0.24-1,0.07c-0.23-0.12-0.46-0.22-0.7-0.3                   c-0.33-0.12-0.56-0.41-0.63-0.75l-0.03-0.13c-0.09-0.48-0.5-0.82-0.99-0.82l-0.72,0c-0.48,0-0.9,0.34-0.99,0.82                   l-0.03,0.14c-0.07,0.35-0.32,0.61-0.64,0.75v11.77c0.32,0.14,0.57,0.4,0.64,0.75l0.03,0.14                   c0.09,0.48,0.51,0.82,0.99,0.82h0.72c0.48,0,0.9-0.35,0.99-0.82l0.03-0.13c0.07-0.37,0.34-0.65,0.69-0.77                   c0.2-0.07,0.39-0.16,0.58-0.25c0.34-0.17,0.74-0.17,1.06,0.05L31.07,69c0.4,0.27,0.94,0.22,1.28-0.12l0.51-0.51                   c0.34-0.34,0.39-0.88,0.12-1.28l-0.09-0.13c-0.22-0.32-0.22-0.72-0.05-1.06c0.09-0.19,0.18-0.38,0.25-0.58                   c0.13-0.35,0.41-0.62,0.77-0.69l0.14-0.03c0.48-0.09,0.82-0.51,0.82-0.99L34.83,62.9z"/></g></g></g></g></g><g><g><g><g><g><path class="st50" d="M28.86,68.87c-0.19,0.09-0.38,0.18-0.58,0.25c-0.35,0.13-0.62,0.41-0.69,0.77l-0.03,0.13                   c-0.09,0.48-0.51,0.82-0.99,0.82h-0.72c-0.48,0-0.9-0.34-0.99-0.82l-0.03-0.14c-0.07-0.37-0.34-0.64-0.69-0.77                   c-0.2-0.07-0.39-0.16-0.58-0.25c-0.34-0.17-0.75-0.17-1.06,0.05L22.38,69c-0.4,0.27-0.94,0.22-1.28-0.12                   l-0.51-0.51c-0.34-0.34-0.39-0.88-0.12-1.28l0.09-0.13c0.2-0.3,0.24-0.68,0.07-1.01c-0.12-0.23-0.22-0.46-0.3-0.7                   c-0.12-0.33-0.41-0.56-0.75-0.63l-0.13-0.03c-0.48-0.09-0.82-0.51-0.82-0.99l0-0.72c0-0.48,0.35-0.9,0.82-0.99                   l0.13-0.02c0.37-0.07,0.65-0.34,0.78-0.69c0.07-0.19,0.16-0.39,0.25-0.57c0.17-0.34,0.17-0.75-0.05-1.06                   l-0.09-0.13c-0.27-0.4-0.22-0.94,0.12-1.28l0.51-0.51c0.34-0.34,0.88-0.39,1.28-0.12l0.13,0.09                   c0.32,0.22,0.72,0.22,1.06,0.05c0.19-0.09,0.38-0.18,0.58-0.25c0.35-0.13,0.62-0.41,0.69-0.77l0.03-0.14                   c0.09-0.48,0.51-0.82,0.99-0.82l0.72,0c0.48,0,0.9,0.35,0.99,0.82l0.03,0.13c0.06,0.34,0.3,0.64,0.63,0.75                   c0.24,0.08,0.47,0.19,0.7,0.3c0.32,0.16,0.71,0.13,1-0.07l0.13-0.09c0.4-0.27,0.94-0.22,1.28,0.12l0.51,0.51                   c0.34,0.34,0.39,0.88,0.12,1.28l-0.09,0.13c-0.2,0.3-0.24,0.68-0.07,1c0.12,0.23,0.22,0.46,0.3,0.7                   c0.12,0.33,0.41,0.56,0.75,0.63l0.13,0.03c0.48,0.09,0.82,0.5,0.82,0.99l0,0.72c0,0.48-0.34,0.9-0.82,0.99                   l-0.14,0.03c-0.36,0.07-0.64,0.34-0.77,0.69c-0.07,0.2-0.16,0.39-0.25,0.58c-0.17,0.34-0.17,0.74,0.05,1.06                   l0.09,0.13c0.27,0.4,0.22,0.94-0.12,1.28l-0.51,0.51c-0.34,0.34-0.88,0.39-1.28,0.12l-0.13-0.09                   C29.6,68.7,29.2,68.7,28.86,68.87z"/></g></g></g></g></g><circle class="st25" cx="26.21" cy="63.25" r="3.8"/></g></g></g></g></g></g></g></g></g></g></g></g><g id="Layer_4"/></svg>