<?xml version="1.0" ?><svg xmlns="http://www.w3.org/2000/svg" xmlns:xlink="http://www.w3.org/1999/xlink" version="1.1" viewBox="0 0 94 94" style="enable-background:new 0 0 94 94;" xml:space="preserve"><style type="text/css">
	.st0{display:none;}
	.st1{display:inline;fill:#FEA900;}
	.st2{display:inline;}
	.st3{display:inline;fill:#F9CD6C;}
	.st4{display:inline;fill:none;stroke:#000000;stroke-width:0.25;stroke-miterlimit:10;}
	.st5{stroke:#000000;stroke-linecap:round;stroke-linejoin:round;stroke-miterlimit:10;}
	.st6{opacity:0.2;stroke:#000000;stroke-linecap:round;stroke-linejoin:round;stroke-miterlimit:10;}
	.st7{fill:#F12A00;stroke:#000000;stroke-linecap:round;stroke-linejoin:round;stroke-miterlimit:10;}
	.st8{fill:#FBECCF;stroke:#000000;stroke-linecap:round;stroke-linejoin:round;stroke-miterlimit:10;}
	.st9{opacity:0.2;fill:#F12A00;}
	.st10{fill:#F7C86C;stroke:#000000;stroke-linecap:round;stroke-linejoin:round;stroke-miterlimit:10;}
	.st11{fill:none;stroke:#000000;stroke-linecap:round;stroke-linejoin:round;stroke-miterlimit:10;}
	.st12{display:inline;stroke:#000000;stroke-linecap:round;stroke-linejoin:round;stroke-miterlimit:10;}
	.st13{fill:#FAAC01;stroke:#000000;stroke-linecap:round;stroke-linejoin:round;stroke-miterlimit:10;}
	.st14{fill:#FAAC01;}
	.st15{display:inline;fill:#FAEBCE;stroke:#000000;stroke-width:0.25;stroke-miterlimit:10;}
	.st16{display:inline;fill:none;stroke:#000000;stroke-width:1.0164;stroke-miterlimit:10;}
	.st17{display:inline;fill:#FAEBCE;stroke:#000000;stroke-width:1.0164;stroke-miterlimit:10;}
	.st18{fill:#FEA900;}
	.st19{fill:#F9CD6C;}
	.st20{fill:none;stroke:#000000;stroke-width:1.0164;stroke-miterlimit:10;}
	.st21{fill:#FAEBCE;stroke:#000000;stroke-width:1.0164;stroke-miterlimit:10;}
	.st22{display:inline;fill:#FAEBCE;}
	.st23{fill:#008FF5;stroke:#000000;stroke-linecap:round;stroke-linejoin:round;stroke-miterlimit:10;}
	.st24{fill:#D0E6FB;stroke:#000000;stroke-linecap:round;stroke-linejoin:round;stroke-miterlimit:10;}
	.st25{fill:#FFFFFF;stroke:#000000;stroke-linecap:round;stroke-linejoin:round;stroke-miterlimit:10;}
	.st26{fill:#75D95D;stroke:#000000;stroke-linecap:round;stroke-linejoin:round;stroke-miterlimit:10;}
	.st27{fill:#CAF3BB;}
	.st28{fill:#FFFFFF;}
	.st29{fill:#CAF3BB;stroke:#000000;stroke-linecap:round;stroke-linejoin:round;stroke-miterlimit:10;}
	.st30{display:inline;fill:#D0E6FB;stroke:#000000;stroke-linecap:round;stroke-linejoin:round;stroke-miterlimit:10;}
	.st31{stroke:#FFFFFF;stroke-linecap:round;stroke-linejoin:round;stroke-miterlimit:10;}
	.st32{fill:#B4B2FB;stroke:#000000;stroke-linecap:round;stroke-linejoin:round;stroke-miterlimit:10;}
	.st33{fill:#018BEE;}
	.st34{display:inline;fill:none;stroke:#000000;stroke-linecap:round;stroke-linejoin:round;stroke-miterlimit:10;}
	.st35{fill:#75D95D;}
	.st36{fill:#4949F7;stroke:#000000;stroke-linecap:round;stroke-linejoin:round;stroke-miterlimit:10;}
	.st37{fill:#D0E6FB;}
	.st38{fill:#6FBBF7;stroke:#000000;stroke-linecap:round;stroke-linejoin:round;stroke-miterlimit:10;}
	.st39{fill:#018BEE;stroke:#000000;stroke-linecap:round;stroke-linejoin:round;stroke-miterlimit:10;}
	.st40{fill:#B4B2FB;}
	.st41{fill:#E8E9FE;}
	.st42{fill:#B4B2FB;stroke:#000F24;stroke-miterlimit:10;}
	.st43{stroke:#000000;stroke-miterlimit:10;}
	.st44{fill:#E8E9FE;stroke:#000000;stroke-linecap:round;stroke-linejoin:round;stroke-miterlimit:10;}
	.st45{opacity:0.3;fill:#018BEE;}
	.st46{fill:#6FBBF7;}
	.st47{fill:#FAAC01;stroke:#FFFFFF;stroke-linecap:round;stroke-linejoin:round;stroke-miterlimit:10;}
	.st48{fill:#006A2F;}
	.st49{opacity:0.1;}
	.st50{fill:#FCD4CA;stroke:#000000;stroke-linecap:round;stroke-linejoin:round;stroke-miterlimit:10;}
	.st51{fill:#006A2F;stroke:#000000;stroke-linecap:round;stroke-linejoin:round;stroke-miterlimit:10;}
	.st52{fill:#4949F7;}
	.st53{fill:#F12A00;}
	.st54{fill:#D0E6FB;stroke:#018BEE;stroke-linecap:round;stroke-linejoin:round;stroke-miterlimit:10;}
	.st55{fill:#9CD7FF;}
	.st56{fill:#F7C86C;}
	.st57{opacity:0.3;stroke:#000000;stroke-linecap:round;stroke-linejoin:round;stroke-miterlimit:10;}
	.st58{opacity:0.1;stroke:#000000;stroke-linecap:round;stroke-linejoin:round;stroke-miterlimit:10;}
	.st59{opacity:0.3;fill:#006A2F;}
	.st60{stroke:#000000;stroke-width:1.0825;stroke-linecap:round;stroke-linejoin:round;stroke-miterlimit:10;}
	.st61{fill:#D0E6FB;stroke:#000000;stroke-width:1.0825;stroke-linecap:round;stroke-linejoin:round;stroke-miterlimit:10;}
	.st62{fill:#6FBBF7;stroke:#000000;stroke-width:1.0825;stroke-linecap:round;stroke-linejoin:round;stroke-miterlimit:10;}
	.st63{fill:none;stroke:#000000;stroke-width:1.0825;stroke-linecap:round;stroke-linejoin:round;stroke-miterlimit:10;}
	.st64{fill:#CAF3BB;stroke:#000000;stroke-width:0.7876;stroke-linecap:round;stroke-linejoin:round;stroke-miterlimit:10;}
	.st65{fill:#6FBBF7;stroke:#FFFFFF;stroke-linecap:round;stroke-linejoin:round;stroke-miterlimit:10;}
	.st66{opacity:0.2;}
	.st67{stroke:#E8E9FE;stroke-linecap:round;stroke-linejoin:round;stroke-miterlimit:10;}
	.st68{fill:#FCD4CA;}
	.st69{fill:#FBECCF;}
	.st70{opacity:0.1;fill:#F12A00;}
	.st71{opacity:0.5;stroke:#000000;stroke-linecap:round;stroke-linejoin:round;stroke-miterlimit:10;}
	.st72{fill:#6FBBF7;stroke:#E8E9FE;stroke-linecap:round;stroke-linejoin:round;stroke-miterlimit:10;}
	.st73{opacity:0.5;fill:#D0E6FB;}
	.st74{fill:#70BAF7;}
	.st75{fill:none;stroke:#FFFFFF;stroke-linecap:round;stroke-linejoin:round;stroke-miterlimit:10;}
	.st76{fill:#70BAF7;stroke:#70BAF7;stroke-linecap:round;stroke-linejoin:round;stroke-miterlimit:10;}
	.st77{fill:#018BEE;stroke:#018BEE;stroke-linecap:round;stroke-linejoin:round;stroke-miterlimit:10;}
	.st78{fill:#70BAF7;stroke:#000000;stroke-linecap:round;stroke-linejoin:round;stroke-miterlimit:10;}
	.st79{fill:#F9CD6C;stroke:#000000;stroke-linecap:round;stroke-linejoin:round;stroke-miterlimit:10;}
	.st80{fill:none;}
	.st81{fill:#006A2F;stroke:#006A2F;stroke-miterlimit:10;}
	.st82{fill:#B4DFFC;}
	.st83{fill:#6FBBF7;stroke:#018BEE;stroke-linecap:round;stroke-linejoin:round;stroke-miterlimit:10;}
	.st84{fill:none;stroke:#FBECCF;stroke-linecap:round;stroke-linejoin:round;stroke-miterlimit:10;}
	.st85{fill:none;stroke:#018BEE;stroke-linecap:round;stroke-linejoin:round;stroke-miterlimit:10;}
	.st86{fill:#010101;stroke:#FFFFFF;stroke-linecap:round;stroke-linejoin:round;stroke-miterlimit:10;}
	.st87{fill:#010101;stroke:#000000;stroke-linecap:round;stroke-linejoin:round;stroke-miterlimit:10;}
	.st88{fill:#75D95D;stroke:#FFFFFF;stroke-linecap:round;stroke-linejoin:round;stroke-miterlimit:10;}
	.st89{fill:#94F279;stroke:#000000;stroke-linecap:round;stroke-linejoin:round;stroke-miterlimit:10;}
	.st90{fill:#8C8CF9;}
	.st91{fill:#008FF5;}
	.st92{fill:#8CD8F9;}
	.st93{fill:#FFC043;}
	.st94{fill:#94F279;}
	.st95{fill:#FF3D1D;}
	.st96{fill:#31B1FF;}
	.st97{fill:#FFCF7B;}
	.st98{fill:#B2FF99;}
	.st99{fill:#D7D7FF;}
	.st100{fill:#FF7C6E;}
	.st101{fill:#5CC9FF;}
	.st102{fill:#F12A00;stroke:#FFFFFF;stroke-linecap:round;stroke-linejoin:round;stroke-miterlimit:10;}
	.st103{fill:#F7C86C;stroke:#000000;stroke-width:1.0164;stroke-miterlimit:10;}
</style><g id="Refrences" class="st0"/><g id="Tittle"/><g id="Icons"><g><g><g><path class="st23" d="M81.5,63.98c-0.12,2.38-0.61,4.77-1.43,6.99l3.79,4.09l-3.91,6.4l-5.23-1.81      c-1.61,1.72-3.45,3.17-5.48,4.32l-0.27,6.09L62.27,92l-2.14-5.38c-2.21,0.08-4.33-0.21-6.33-0.88l-4.19,4.55l-5.58-3.65      l2.17-5.82c-1.42-1.56-2.61-3.46-3.46-5.56l-5.66,0.31l-1.16-7.09l5.24-2.86c0.12-2.38,0.61-4.77,1.41-6.98l-3.79-4.09      l3.93-6.41l5.23,1.81c1.61-1.72,3.45-3.17,5.48-4.32l0.27-6.09l6.7-1.95l2.14,5.38c2.21-0.08,4.33,0.21,6.33,0.88l4.19-4.55      l5.55,3.65l-2.17,5.82c1.44,1.56,2.64,3.45,3.48,5.56l5.63-0.3l1.16,7.09L81.5,63.98z"/></g><polygon class="st24" points="81.64,51.48 85.56,54.04 86.72,61.13 82.8,58.57    "/><line class="st11" x1="81.5" y1="63.98" x2="77.59" y2="61.42"/><polygon class="st5" points="80.07,70.96 76.15,68.4 79.94,72.49 83.86,75.05    "/><polygon class="st24" points="76.03,78.89 79.95,81.46 83.86,75.05 79.94,72.49    "/><polygon class="st24" points="65.32,81.4 69.24,83.97 68.97,90.05 65.06,87.49    "/><polygon class="st23" points="70.8,77.09 74.72,79.65 79.95,81.46 76.03,78.89    "/><polygon class="st23" points="62.27,92 58.35,89.44 65.06,87.49 68.97,90.05    "/><polygon class="st24" points="49.88,83.17 45.69,87.72 49.61,90.28 53.8,85.73    "/><polygon class="st5" points="37.09,75.56 33.17,73 38.82,72.69 42.26,73.91 40.17,75.39    "/><polygon class="st5" points="78.62,42.97 74.7,40.41 72.53,46.23 76.44,48.79    "/><polygon class="st5" points="60.4,37.6 56.48,35.04 58.62,40.42 61.81,41.33    "/><g><path class="st24" d="M77.59,61.42c-0.12,2.38-0.61,4.77-1.43,6.99l3.79,4.09l-3.91,6.4l-5.23-1.81      c-1.61,1.72-3.45,3.17-5.48,4.32l-0.27,6.09l-6.7,1.95l-2.14-5.38c-2.21,0.08-4.33-0.21-6.33-0.88l-4.19,4.55l-5.58-3.65      l2.17-5.82c-1.42-1.56-2.61-3.46-3.46-5.56L33.17,73l-1.16-7.09l5.24-2.86c0.12-2.38,0.61-4.77,1.41-6.98l-3.79-4.09l3.93-6.41      l5.23,1.81c1.61-1.72,3.45-3.17,5.48-4.32l0.27-6.09l6.7-1.95l2.14,5.38c2.21-0.08,4.33,0.21,6.33,0.88l4.19-4.55l5.55,3.65      l-2.17,5.82c1.44,1.56,2.64,3.45,3.48,5.56l5.63-0.3l1.16,7.09L77.59,61.42z"/></g><ellipse transform="matrix(0.4335 -0.9012 0.9012 0.4335 -23.5585 87.0008)" class="st25" cx="57.42" cy="62.24" rx="12.25" ry="10.81"/></g><g><g><path class="st32" d="M26.94,37.77l-2.46,2.56c-1.7-0.49-3.3-1.25-4.79-2.24l2.46-2.56C23.64,36.52,25.24,37.26,26.94,37.77z"/><path class="st32" d="M16.7,30.03l-2.44,2.57c-1-1.5-1.77-3.17-2.27-4.91l2.46-2.56C14.94,26.85,15.71,28.53,16.7,30.03z"/><polygon class="st32" points="14.44,25.12 11.99,27.69 7.65,26.47 10.1,23.91     "/><path class="st32" d="M15.56,13.03c-0.8,1.39-1.35,3-1.62,4.71l-1.92,0.34c0.29-0.88,0.65-1.71,1.08-2.48L15.56,13.03z"/><path class="st32" d="M38.65,36.42l-2.46,2.56c-0.75,0.46-1.54,0.84-2.37,1.14l0.3-1.97C35.77,37.84,37.29,37.25,38.65,36.42z"/><path class="st23" d="M46.42,23.15l0.22,3.32l0,0.01l0.13,2.11l-2.31,0.4l-1.92,0.34c-0.26,1.69-0.82,3.3-1.6,4.7l2.61,3.92      l-1.04,1.09l-2.46,2.56l-3.88-2.63l2.46-2.56c-1.36,0.84-2.88,1.42-4.52,1.74l-0.3,1.97c-0.69,0.25-1.41,0.46-2.16,0.6      l-0.25,1.67l-0.4,2.68l-5.29-0.28l-1.25-4.45l2.46-2.56c-1.71-0.5-3.31-1.24-4.79-2.24l-2.46,2.56l-3.54,2.24l-3.99-4.05      l2.09-3.67l2.44-2.57c-0.99-1.49-1.76-3.17-2.25-4.9l-4.35-1.21l-2.45,2.56l-0.37-5.43l2.6-0.46l1.62-0.28      c0.11-0.76,0.3-1.51,0.53-2.23l1.92-0.34c0.27-1.7,0.82-3.31,1.62-4.71l-2.46,2.56l-2.6-3.92l3.46-3.66l0.01,0.01l3.87,2.64      c1.37-0.84,2.88-1.42,4.52-1.75l0.3-1.97l0.36-2.38l2.05,0.12l3.24,0.17l1.24,4.44c1.7,0.51,3.3,1.26,4.79,2.24l3.55-2.23      l4.01,4.06l-2.09,3.67c0.96,1.49,1.75,3.17,2.24,4.91L46.42,23.15z"/></g><polygon class="st24" points="9.74,18.48 9.88,20.58 10.1,23.91 7.65,26.47 7.28,21.04    "/><polygon class="st5" points="16.7,30.03 14.6,33.7 12.16,36.27 14.25,32.6    "/><polygon class="st24" points="18.6,37.76 16.15,40.32 12.16,36.27 14.61,33.7    "/><polygon class="st23" points="26.94,37.77 28.19,42.22 25.73,44.78 24.49,40.33    "/><polygon class="st32" points="22.15,35.52 19.7,38.08 16.15,40.32 18.59,37.75    "/><polygon class="st23" points="31.02,45.06 33.47,42.5 28.18,42.21 25.73,44.78    "/><polygon class="st23" points="42.52,39.05 40.07,41.61 36.19,38.98 38.65,36.42    "/><polygon class="st5" points="46.79,28.59 49.24,26.02 45.01,26.77 42.68,28.26 44.48,28.99    "/><polygon class="st5" points="15.56,13.03 13.1,15.59 10.51,11.67 12.95,9.1    "/><polygon class="st5" points="23.03,4.57 25.48,2 24.83,6.35 22.64,7.57    "/><g><path class="st24" d="M48.88,20.59l0.36,5.43l-2.59,0.45l-1.63,0.29c-0.12,0.76-0.3,1.51-0.54,2.23      c-0.28,0.87-0.63,1.71-1.06,2.48l2.6,3.92l-2.44,2.57l-1.04,1.09l-3.88-2.63c-1.36,0.84-2.88,1.42-4.52,1.74l-0.3,1.97      l-0.36,2.38l-2.05-0.12l-3.23-0.17l-1.25-4.45c-1.71-0.5-3.31-1.24-4.79-2.24l-3.56,2.23L14.6,33.7l2.09-3.67      c-0.99-1.49-1.76-3.17-2.25-4.9l-4.35-1.21l-0.22-3.33l-0.14-2.1l2.28-0.41l1.92-0.34c0.27-1.7,0.82-3.31,1.62-4.71L12.95,9.1      l1.03-1.08l2.44-2.57l3.88,2.63c0.75-0.46,1.54-0.84,2.37-1.14l0.05-0.02c0.67-0.24,1.38-0.45,2.11-0.58l0.25-1.67L25.49,2      l5.29,0.28l1.25,4.45c1.7,0.51,3.3,1.25,4.79,2.24l3.54-2.24l4.01,4.06l-2.1,3.68c0.98,1.5,1.75,3.18,2.24,4.91L48.88,20.59z"/></g><ellipse transform="matrix(0.7792 -0.6268 0.6268 0.7792 -7.4368 23.3906)" class="st25" cx="29.48" cy="22.25" rx="8.2" ry="9.29"/></g></g></g><g id="Layer_4"/></svg>